<svg width="853" height="532" viewBox="0 0 853 532" fill="none" xmlns="http://www.w3.org/2000/svg">
<g opacity="0.8" filter="url(#filter0_d)">
<path d="M-0.000143982 147C-0.000143982 147 63.9058 126.698 124.736 129.106C223.523 133.017 333.376 140.861 396.821 140.861C466.679 140.861 531.626 138.493 611.033 101.361C648.153 84.0032 747.822 -9.27492 799.822 6.36129C851.822 21.9975 744.322 146.861 789.822 263.861C859.675 386.574 868.684 478.82 815.322 503.861C668.822 572.609 583.444 418.861 556.533 395.361C529.622 371.861 491.033 303.361 377.533 303.361C292.148 303.361 215.033 313.861 139.533 344.361C64.0328 374.861 -0.000119428 420.5 -0.000119428 420.5L-0.000143982 147Z" fill="url(#paint0_linear)"/>
</g>
<g opacity="0.8" filter="url(#filter1_d)">
<path d="M154.117 164.775C227.63 158.511 388.223 173.215 461.827 173.215C511.984 173.215 558.616 171.515 615.629 144.854C642.281 132.392 679.55 90.6329 716.886 101.86C754.221 113.086 711.33 177.523 743.998 261.528C794.152 349.635 796.905 409.471 762.307 433.846C716.886 465.846 656.762 420.781 601.836 372.817C546.91 324.853 540.807 298.846 471.307 279.36C401.807 259.873 306.268 264.278 202.307 279.36C63.0398 299.563 -0.726318 372.984 -0.726318 372.984L-0.726318 208.984C-0.726318 208.984 38.9419 174.589 154.117 164.775Z" fill="url(#paint1_linear)"/>
</g>
<defs>
<filter id="filter0_d" x="-10.0002" y="4.60217" width="859.684" height="526.814" filterUnits="userSpaceOnUse" color-interpolation-filters="sRGB">
<feFlood flood-opacity="0" result="BackgroundImageFix"/>
<feColorMatrix in="SourceAlpha" type="matrix" values="0 0 0 0 0 0 0 0 0 0 0 0 0 0 0 0 0 0 127 0"/>
<feOffset dx="-5" dy="5"/>
<feGaussianBlur stdDeviation="2.5"/>
<feColorMatrix type="matrix" values="0 0 0 0 0 0 0 0 0 0 0 0 0 0 0 0 0 0 0.25 0"/>
<feBlend mode="normal" in2="BackgroundImageFix" result="effect1_dropShadow"/>
<feBlend mode="normal" in="SourceGraphic" in2="effect1_dropShadow" result="shape"/>
</filter>
<filter id="filter1_d" x="-10.7263" y="99.9632" width="796.154" height="354.638" filterUnits="userSpaceOnUse" color-interpolation-filters="sRGB">
<feFlood flood-opacity="0" result="BackgroundImageFix"/>
<feColorMatrix in="SourceAlpha" type="matrix" values="0 0 0 0 0 0 0 0 0 0 0 0 0 0 0 0 0 0 127 0"/>
<feOffset dx="-5" dy="5"/>
<feGaussianBlur stdDeviation="2.5"/>
<feColorMatrix type="matrix" values="0 0 0 0 0 0 0 0 0 0 0 0 0 0 0 0 0 0 0.25 0"/>
<feBlend mode="normal" in2="BackgroundImageFix" result="effect1_dropShadow"/>
<feBlend mode="normal" in="SourceGraphic" in2="effect1_dropShadow" result="shape"/>
</filter>
<linearGradient id="paint0_linear" x1="328.5" y1="-72.5" x2="457.33" y2="551.782" gradientUnits="userSpaceOnUse">
<stop stop-color="#EDECEC"/>
<stop offset="1" stop-color="white" stop-opacity="0.94"/>
</linearGradient>
<linearGradient id="paint1_linear" x1="119.774" y1="144.484" x2="147.774" y2="383.484" gradientUnits="userSpaceOnUse">
<stop offset="0.0440978" stop-color="#D0CFCF"/>
<stop offset="1" stop-color="white" stop-opacity="0.94"/>
<stop offset="1" stop-color="#8F8989" stop-opacity="0.94"/>
</linearGradient>
</defs>
</svg>
